# xmcd CD database file generated by LOLA_Freedb v0.9beta0
# 
# Track frame offsets:
#      150
#      12805
#      26153
#      36670
#      50945
#      64422
#      80131
#      92798
#      107220
#      118693
# 
# Disc length: 1780 seconds
# 
# Revision: 0 
# Processed by: cddbd v1.5.2PL0 Copyright (c) Steve Scherf et al.
# Submitted via: LOLA_Freedb v0.9beta0
# 
DISCID=9406f20a
DTITLE=Lynn Davis - Wild Turkey and 7 Up
DYEAR=2009
DGENRE=
TTITLE0=Lynn Davis - Wild Turkey and 7 Up
TTITLE1=Lynn Davis - Here's Looking At You
TTITLE2=Lynn Davis - Down, Down, Down
TTITLE3=Lynn Davis - My Memorie's Gona Serve You Right
TTITLE4=Lynn Davis - Hurt Like Haggart And Cry Like Jones
TTITLE5=Lynn Davis - Are You Gone For Good
TTITLE6=Lynn Davis - That Commin' Back Look
TTITLE7=Lynn Davis - Meet Me At  The Wishing Well
TTITLE8=Lynn Davis - Take My Advice Cause I Never Used It
TTITLE9=Lynn Davis - Peace In The Valley
EXTD=
EXTT0=
EXTT1=
EXTT2=
EXTT3=
EXTT4=
EXTT5=
EXTT6=
EXTT7=
EXTT8=
EXTT9=
PLAYORDER=
